{"title":"Blood Work(2002)MPEG-4[DaScubaDude]","uid":15871770,"size":1098646772,"categoryP":"video","categoryS":"movies","magnet":"?xt=urn:btih:6c60122884a358bdb9377f2d713a9af950882d2e&amp;dn=Blood+Work%282002%29MPEG-4%5BDaScubaDude%5D&amp;tr=udp%3A%2F%2Ftracker.leechers-paradise.org%3A6969&amp;tr=udp%3A%2F%2Fzer0day.ch%3A1337&amp;tr=udp%3A%2F%2Fopen.demonii.com%3A1337&amp;tr=udp%3A%2F%2Ftracker.coppersurfer.tk%3A6969&amp;tr=udp%3A%2F%2Fexodus.desync.com%3A6969","seeders":0,"leechers":2,"uploader":"dascuba","files":2,"time":1474439790,"description":"General\r\nComplete name                            : Blood WorkBLOOD_WORK_Title1.mp4\r\nFormat                                   : MPEG-4\r\nFormat profile                           : Base Media\r\nCodec ID                                 : isom (isom/iso2/avc1/mp41)\r\nFile size                                : 1.02 GiB\r\nDuration                                 : 1h 50mn\r\nOverall bit rate mode                    : Variable\r\nOverall bit rate                         : 1 327 Kbps\r\nMovie name                               : BLOOD_WORK\r\nGenre                                    : Thriller\r\nWriting application                      : Lavf54.6.100\r\n\r\nVideo\r\nID                                       : 1\r\nFormat                                   : AVC\r\nFormat/Info                              : Advanced Video Codec\r\nFormat profile                           :   \r\nFormat settings, CABAC                   : No\r\nFormat settings, ReFrames                : 6 frames\r\nCodec ID                                 : avc1\r\nCodec ID/Info                            : Advanced Video Coding\r\nDuration                                 : 1h 50mn\r\nBit rate                                 : 1 193 Kbps\r\nWidth                                    : 720 pixels\r\nHeight                                   : 404 pixels\r\nDisplay aspect ratio                     : 16:9\r\nFrame rate mode                          : Constant\r\nFrame rate                               : 29.970 (30000/1001) fps\r\nColor space                              : YUV\r\nChroma subsampling                       : 4:2:0\r\nBit depth                                : 8 bits\r\nScan type                                : Progressive\r\nBits/(Pixel*Frame)                       : 0.137\r\nStream size                              : 941 MiB (90%)\r\n\r\nAudio\r\nID                                       : 2\r\nFormat                                   : AAC\r\nFormat/Info                              : Advanced Audio Codec\r\nFormat profile                           : LC\r\nCodec ID                                 : 40\r\nDuration                                 : 1h 50mn\r\nBit rate mode                            : Variable\r\nBit rate                                 : 128 Kbps\r\nMaximum bit rate                         : 134 Kbps\r\nChannel(s)                               : 2 channels\r\nChannel positions                        : Front: L R\r\nSampling rate                            : 44.1 KHz\r\nFrame rate                               : 43.066 fps (1024 spf)\r\nCompression mode                         : Lossy\r\nStream size                              : 101 MiB (10%)\r\nDefault                                  : Yes\r\nAlternate group                          : 1","torrent":{"xt":"urn:btih:6c60122884a358bdb9377f2d713a9af950882d2e","amp;dn":"Blood+Work%282002%29MPEG-4%5BDaScubaDude%5D","amp;tr":["udp%3A%2F%2Ftracker.leechers-paradise.org%3A6969","udp%3A%2F%2Fzer0day.ch%3A1337","udp%3A%2F%2Fopen.demonii.com%3A1337","udp%3A%2F%2Ftracker.coppersurfer.tk%3A6969","udp%3A%2F%2Fexodus.desync.com%3A6969"],"infoHash":"6c60122884a358bdb9377f2d713a9af950882d2e","infoHashBuffer":{"type":"Buffer","data":[108,96,18,40,132,163,88,189,185,55,127,45,113,58,154,249,80,136,45,46]},"announce":[],"urlList":[]}}